<?xml version="1.0" encoding="UTF-8"?>
<svg width="91.44mm" height="91.44mm" clip-rule="evenodd" fill-rule="evenodd" image-rendering="optimizeQuality" shape-rendering="geometricPrecision" text-rendering="geometricPrecision" version="1.1" viewBox="0 0 9144 9144" xmlns="http://www.w3.org/2000/svg">
 <defs>
  <style type="text/css">.fil1 {fill:white;fill-rule:nonzero} .fil0 {fill:url(#a)}</style>
  <linearGradient id="a" x1="8595.4" x2="548.64" y1="8595.4" y2="548.63" gradientUnits="userSpaceOnUse">
   <stop stop-color="#48CFAE" offset="0"/>
   <stop stop-color="#4FC0E8" offset="1"/>
  </linearGradient>
 </defs>
 <polygon class="fil0" points="0 0 9144 0 9144 9144 0 9144"/>
 <path class="fil1" d="m3345 2455h2454c245 0 467 100 628 262 162 161 262 383 262 628v2454c0 245-100 467-262 628-161 162-383 262-628 262h-2454c-245 0-467-100-628-262-162-161-262-383-262-628v-2454c0-245 100-467 262-628 161-162 383-262 628-262zm2521 694c48 0 88 40 88 88 0 49-40 88-88 88-49 0-88-39-88-88 0-48 39-88 88-88zm-1294 241c653 0 1182 529 1182 1182s-529 1182-1182 1182-1182-529-1182-1182 529-1182 1182-1182zm1013 1182c0-559-454-1013-1013-1013s-1013 454-1013 1013 454 1013 1013 1013 1013-454 1013-1013zm214-1947h-2454c-198 0-378 81-509 211-130 131-211 311-211 509v2454c0 198 81 378 211 509 131 130 311 211 509 211h2454c198 0 378-81 509-211 130-131 211-311 211-509v-2454c0-198-81-378-211-509-131-130-311-211-509-211z"/>
</svg>
