<svg xmlns="http://www.w3.org/2000/svg" width="240.659" height="194.348" viewBox="0 0 240.659 194.348">
  <g id="Group_3" data-name="Group 3" transform="translate(-346.458)">
    <path id="Path_104" data-name="Path 104" d="M780.582,321.657c-15.25-11.4-39.135-22.183-65.531-29.581-24.034-6.736-47.475-9.989-66.012-9.158l-.1-2.156c18.757-.84,42.442,2.44,66.691,9.236,26.642,7.467,50.786,18.377,66.241,29.931Z" transform="translate(-246.981 -217.3)" fill="#ccc"/>
    <path id="Path_105" data-name="Path 105" d="M766.081,310.012a71.808,71.808,0,0,1-6.214,29.318q-.515,1.159-1.072,2.3a72.08,72.08,0,0,1-136.852-31.613q0-2.5.17-4.965.081-1.253.209-2.49a72.073,72.073,0,0,1,143.759,7.455Z" transform="translate(-234.063 -196.874)" fill="#6c63ff"/>
    <path id="Path_106" data-name="Path 106" d="M760.024,398.6q-.515,1.159-1.072,2.3-3.159.343-6.65.5c-1.927.086-3.91.129-5.936.129-17.7,0-39-3.267-60.756-9.365-24.249-6.8-46.187-16.3-61.775-26.771q-.8-.534-1.564-1.07.081-1.253.209-2.49,1.24.884,2.557,1.769c15.4,10.342,37.122,19.748,61.156,26.484,21.569,6.046,42.668,9.285,60.163,9.285q3,0,5.85-.127Q756.353,399.052,760.024,398.6Z" transform="translate(-234.22 -256.146)" opacity="0.1"/>
    <path id="Path_107" data-name="Path 107" d="M728.134,361.072c-17.7,0-39-3.267-60.756-9.365-24.249-6.8-46.188-16.3-61.776-26.771-15.913-10.685-23.375-21.215-21.012-29.647s14.211-13.55,33.36-14.408l.1,2.156c-8.942.4-16.23,1.73-21.66,3.95s-8.687,5.2-9.718,8.884.208,7.933,3.685,12.641,9.02,9.642,16.452,14.632c15.4,10.343,37.121,19.749,61.155,26.485,21.57,6.046,42.666,9.285,60.163,9.286q3,0,5.849-.128c8.942-.4,16.23-1.73,21.66-3.95s8.687-5.2,9.718-8.884c1.852-6.608-3.745-15.195-15.761-24.177l1.292-1.728c6.183,4.623,10.76,9.179,13.6,13.543,3.049,4.678,4.039,9.034,2.942,12.945-2.364,8.433-14.211,13.55-33.36,14.408C732.142,361.029,730.16,361.072,728.134,361.072Z" transform="translate(-215.988 -217.419)" fill="#ccc"/>
    <circle id="Ellipse_48" data-name="Ellipse 48" cx="0.826" cy="0.826" r="0.826" transform="translate(461.029 26.419)" fill="#f2f2f2"/>
    <circle id="Ellipse_49" data-name="Ellipse 49" cx="1.421" cy="1.421" r="1.421" transform="translate(350.872 61.065)" fill="#ccc"/>
    <circle id="Ellipse_50" data-name="Ellipse 50" cx="2.807" cy="2.807" r="2.807" transform="translate(346.458 115.286)" fill="#ccc"/>
    <circle id="Ellipse_51" data-name="Ellipse 51" cx="1.871" cy="1.871" r="1.871" transform="translate(515.867 30.329)" fill="#ccc"/>
    <circle id="Ellipse_52" data-name="Ellipse 52" cx="3.037" cy="3.037" r="3.037" transform="translate(581.043 106.797)" fill="#ccc"/>
    <circle id="Ellipse_53" data-name="Ellipse 53" cx="1.303" cy="1.303" r="1.303" transform="translate(559.029 60.025)" fill="#ccc"/>
    <circle id="Ellipse_54" data-name="Ellipse 54" cx="2.033" cy="2.033" r="2.033" transform="translate(400.086 42.555)" fill="#ccc"/>
    <circle id="Ellipse_55" data-name="Ellipse 55" cx="1.303" cy="1.303" r="1.303" transform="translate(554.468 102.373)" fill="#ccc"/>
    <circle id="Ellipse_56" data-name="Ellipse 56" cx="1.622" cy="1.622" r="1.622" transform="translate(354.25 156.112)" fill="#ccc"/>
    <circle id="Ellipse_57" data-name="Ellipse 57" cx="1.756" cy="1.756" r="1.756" transform="translate(386.874 178.55)" fill="#ccc"/>
    <path id="Path_108" data-name="Path 108" d="M517.135,3.466h-3.466V0H511.81V3.466h-3.467V5.327h3.467V8.793h1.859V5.327h3.466Z" transform="translate(-77.448)" fill="#ccc"/>
    <path id="Path_109" data-name="Path 109" d="M674.278,364.205H672.1v-2.176h-1.167v2.176h-2.176v1.168h2.176v2.176H672.1v-2.176h2.177Z" transform="translate(-154.194 -173.201)" fill="#ccc"/>
    <path id="Path_110" data-name="Path 110" d="M771.86,343.352h-1.627v-1.627h-.874v1.627h-1.627v.874h1.627v1.627h.874v-1.627h1.627Z" transform="translate(-201.545 -163.487)" fill="#ccc"/>
    <circle id="Ellipse_59" data-name="Ellipse 59" cx="6.056" cy="6.056" r="6.056" transform="translate(408.451 94.969)" opacity="0.1"/>
    <circle id="Ellipse_60" data-name="Ellipse 60" cx="6.056" cy="6.056" r="6.056" transform="translate(475.344 155.807)" opacity="0.1"/>
    <circle id="Ellipse_71" data-name="Ellipse 71" cx="6.056" cy="6.056" r="6.056" transform="translate(469.344 91.807)" opacity="0.1"/>
    <circle id="Ellipse_72" data-name="Ellipse 72" cx="6.056" cy="6.056" r="6.056" transform="translate(444.344 100.807)" opacity="0.1"/>
    <circle id="Ellipse_73" data-name="Ellipse 73" cx="6.056" cy="6.056" r="6.056" transform="translate(457.344 51.807)" opacity="0.1"/>
    <circle id="Ellipse_62" data-name="Ellipse 62" cx="6.056" cy="6.056" r="6.056" transform="translate(411.478 137.638)" opacity="0.1"/>
    <circle id="Ellipse_64" data-name="Ellipse 64" cx="6.056" cy="6.056" r="6.056" transform="translate(507.552 112.863)" opacity="0.1"/>
    <circle id="Ellipse_67" data-name="Ellipse 67" cx="7.983" cy="7.983" r="7.983" transform="translate(505.625 85.334)" fill="#fff"/>
    <path id="Path_113" data-name="Path 113" d="M852.643,315.955a11.287,11.287,0,0,0-11.287,11.287c0,6.233,11.287,26.7,11.287,26.7s11.287-20.469,11.287-26.7a11.287,11.287,0,0,0-11.287-11.287Zm0,16.792a5.23,5.23,0,1,1,5.23-5.231,5.23,5.23,0,0,1-5.23,5.231Z" transform="translate(-339.035 -234.199)" fill="#ccc"/>
    <circle id="Ellipse_68" data-name="Ellipse 68" cx="7.983" cy="7.983" r="7.983" transform="translate(453.046 22.295)" fill="#fff"/>
    <circle id="Ellipse_70" data-name="Ellipse 70" cx="7.983" cy="7.983" r="7.983" transform="translate(406.524 66.891)" fill="#fff"/>
    <path id="Path_116" data-name="Path 116" d="M662.642,280.593a11.286,11.286,0,0,0-11.287,11.287c0,6.233,11.287,26.7,11.287,26.7s11.286-20.469,11.286-26.7a11.286,11.286,0,0,0-11.286-11.287Zm0,16.792a5.23,5.23,0,1,1,5.23-5.23A5.23,5.23,0,0,1,662.642,297.385Z" transform="translate(-248.135 -217.281)" fill="#3f3d56"/>
  </g>
</svg>
